<svg width="87" height="66" viewBox="0 0 87 66" fill="none" xmlns="http://www.w3.org/2000/svg">
<path d="M80.4246 4.32092C79.7989 4.7191 79.4577 4.94662 79.0595 5.11727C78.0925 5.6292 77.1824 6.19802 76.2154 6.70996C75.8172 6.8806 75.3622 6.99437 74.9071 7.05125C74.3952 7.10813 73.8832 6.8806 73.7126 6.36867C73.542 5.79985 73.8264 5.40168 74.2814 5.11727C75.8741 4.03651 77.4668 2.842 79.0595 1.76124C79.6852 1.30619 80.3678 0.908019 81.0503 0.566728C83.155 -0.570907 84.6339 -0.00208931 85.1458 2.33006C85.8284 5.57232 86.2835 8.87146 86.7954 12.1137C86.9092 12.7394 86.7385 13.4789 86.5679 14.1046C86.4541 14.6734 86.1128 15.0716 85.3165 15.0147C84.6339 13.7064 84.0651 12.3413 83.7238 10.8623C83.3825 9.49716 83.0412 8.07512 82.4724 6.70996C82.188 7.39254 81.9036 8.132 81.5623 8.81458C80.5953 10.8623 79.6852 12.9669 78.5476 14.9009C76.2154 18.9964 72.6318 21.0442 67.9675 21.3286C65.4647 21.4423 62.9619 21.101 60.516 20.646C59.4353 20.4753 58.3545 20.3047 57.2738 20.1341C54.6572 19.7928 52.2113 20.3047 49.8791 21.4423C46.125 23.2625 43.224 26.0498 41.29 29.7471C39.9248 32.3636 38.901 35.1508 38.1615 37.9949C38.0477 38.3931 38.1046 38.7913 37.9909 39.1894C37.8771 39.4738 37.6496 39.9289 37.422 39.9858C37.1376 40.0427 36.5688 39.9289 36.3982 39.6445C36.1138 39.3032 36 38.7344 36 38.2793C36 37.4261 36.1706 36.5729 36.3413 35.7197C37.4789 30.8278 39.4129 26.2773 43.1671 22.7506C46.0112 20.0772 49.2534 18.1432 53.0645 17.3468C55.4536 16.8349 57.8426 17.1762 60.2316 17.5744C61.7106 17.8019 63.1895 18.1432 64.6684 18.3138C65.9767 18.4276 67.285 18.3707 68.5932 18.257C70.9254 18.0294 72.8594 16.9487 74.3383 15.1285C75.0209 14.3321 75.5897 13.4789 76.1016 12.5688C77.4099 10.1797 78.6613 7.73383 79.9696 5.34479C80.1402 5.11727 80.1971 4.83286 80.4246 4.32092Z" fill="white"/>
<path d="M9.088 56.744C8.784 57.848 7.968 58.52 6.096 58.52C4.176 58.52 2.848 57.544 2.848 55.32C2.848 53.096 4.176 52.104 6.096 52.104C7.904 52.104 8.736 52.68 9.088 53.896H11.616C11.456 51.496 9.216 49.624 6.096 49.624C2.88 49.624 0.432 51.64 0.432 55.32C0.432 59.064 2.88 61 6.096 61C9.216 61 11.392 59.24 11.616 56.744H9.088ZM17.174 51.864C14.454 51.864 12.182 53.352 12.182 56.44C12.182 59.544 14.454 61 17.174 61C19.91 61 22.182 59.592 22.182 56.44C22.182 53.32 19.91 51.864 17.174 51.864ZM17.174 58.792C15.654 58.792 14.566 58.12 14.566 56.44C14.566 54.744 15.654 54.088 17.174 54.088C18.71 54.088 19.798 54.776 19.798 56.44C19.798 58.056 18.71 58.792 17.174 58.792ZM28.4059 52.024C26.7899 52.024 25.9739 52.552 25.3979 53.352H25.2859V52.024H22.8539V61H25.2859V56.68C25.2859 55.464 25.5899 54.12 27.7019 54.12C30.0219 54.12 29.8779 55.816 29.8779 56.52V61H32.2939V56.52C32.2939 55.208 32.1979 52.024 28.4059 52.024ZM39.9411 57.64C39.7651 58.264 39.2051 58.824 37.6691 58.824C36.0851 58.824 35.2531 58.104 35.2531 56.504C35.2531 54.984 36.0851 54.2 37.6691 54.2C39.1571 54.2 39.7491 54.712 39.9571 55.384H42.3411C42.1331 53.256 40.2451 52.008 37.6691 52.008C35.0291 52.008 32.8851 53.608 32.8851 56.504C32.8851 59.48 35.0291 61 37.6691 61C40.2451 61 42.1491 59.8 42.3411 57.64H39.9411ZM52.3583 57.08H52.4543C52.5823 55.848 52.4223 53.96 50.6943 52.776V52.792C49.9423 52.264 48.9183 51.944 47.6543 51.944C44.6303 51.944 42.8383 53.544 42.8383 56.472C42.8383 59.464 44.5823 61 47.6543 61C50.5983 61 52.1663 59.816 52.4062 57.88H50.0543C49.8303 58.472 49.1103 58.872 47.6543 58.872C46.0863 58.872 45.3663 58.28 45.1903 57.08H52.3583ZM47.6543 54.072C49.3823 54.072 49.8303 54.808 50.0223 55.48H45.2863C45.5743 54.568 46.3103 54.072 47.6543 54.072ZM59.0536 52.04C57.3896 52.04 56.3656 52.568 55.7576 53.352H55.6296V52.04H53.1976V64.424H55.6296V59.768H55.7416C56.3496 60.552 57.3736 61.032 59.0536 61.032C62.8296 61.032 63.2456 57.736 63.2456 56.536C63.2456 55.224 62.8456 52.04 59.0536 52.04ZM58.3496 58.936C56.2376 58.936 55.8056 57.896 55.8056 56.536C55.8056 55.32 56.2376 54.136 58.3496 54.136C60.6696 54.136 60.9256 55.832 60.9256 56.536C60.9256 57.176 60.6696 58.936 58.3496 58.936ZM66.9546 54.104H69.8666V52.056H66.9546V49.464H64.5066V52.056H63.3226V54.104H64.5066V57.704C64.5066 59 64.5066 61 66.9546 61C69.3866 61 69.8666 60.84 69.8666 60.84V58.472C67.5306 58.6 66.9546 58.776 66.9546 57.48V57.288V54.104Z" fill="white"/>
</svg>
